<?xml version="1.0" encoding="UTF-8"?>
<svg xmlns="http://www.w3.org/2000/svg" xmlns:xlink="http://www.w3.org/1999/xlink" width="266pt" height="321pt" viewBox="0 0 266 321" version="1.1">
<g id="surface0">
<path style=" stroke:none;fill-rule: nonzero; fill: rgb(100%,100%,100%); fill-opacity: 1;" d="M 0 0 L 478.5 0 L 478.5 342 L 0 342 Z M 0 0 "/>
<path style="fill-rule: nonzero; fill: rgb(100%,100%,100%); fill-opacity: 1;stroke-width: 0.1; stroke-linecap: butt; stroke-linejoin: miter; stroke: rgb(0%,0%,0%); stroke-opacity: 1;stroke-miterlimit: 10; " d="M 11.925 15.1 C 13.303906 15.1 13.303906 17.05 11.925 17.05 C 10.546094 17.05 10.546094 15.1 11.925 15.1 " transform="matrix(20,0,0,20,-212.5,-20)"/>
<path style="fill-rule: nonzero; fill: rgb(100%,100%,100%); fill-opacity: 1;stroke-width: 0.1; stroke-linecap: butt; stroke-linejoin: miter; stroke: rgb(0%,0%,0%); stroke-opacity: 1;stroke-miterlimit: 10; " d="M 22.9 12.875 C 24.278906 12.875 24.278906 14.825 22.9 14.825 C 21.521094 14.825 21.521094 12.875 22.9 12.875 " transform="matrix(20,0,0,20,-212.5,-20)"/>
<path style="fill-rule: nonzero; fill: rgb(100%,100%,100%); fill-opacity: 1;stroke-width: 0.1; stroke-linecap: butt; stroke-linejoin: miter; stroke: rgb(0%,0%,0%); stroke-opacity: 1;stroke-miterlimit: 10; " d="M 17.384961 13.35 C 18.763867 13.35 18.763867 15.3 17.384961 15.3 C 16.006055 15.3 16.006055 13.35 17.384961 13.35 " transform="matrix(20,0,0,20,-212.5,-20)"/>
<path style="fill-rule: nonzero; fill: rgb(100%,100%,100%); fill-opacity: 1;stroke-width: 0.1; stroke-linecap: butt; stroke-linejoin: miter; stroke: rgb(0%,0%,0%); stroke-opacity: 1;stroke-miterlimit: 10; " d="M 11.65 11.075 C 13.028906 11.075 13.028906 13.025 11.65 13.025 C 10.271094 13.025 10.271094 11.075 11.65 11.075 " transform="matrix(20,0,0,20,-212.5,-20)"/>
<path style="fill-rule: nonzero; fill: rgb(100%,100%,100%); fill-opacity: 1;stroke-width: 0.1; stroke-linecap: butt; stroke-linejoin: miter; stroke: rgb(0%,0%,0%); stroke-opacity: 1;stroke-miterlimit: 10; " d="M 18.294922 6.4 C 19.673828 6.4 19.673828 8.35 18.294922 8.35 C 16.916211 8.35 16.916211 6.4 18.294922 6.4 " transform="matrix(20,0,0,20,-212.5,-20)"/>
<path style="fill-rule: nonzero; fill: rgb(100%,100%,100%); fill-opacity: 1;stroke-width: 0.1; stroke-linecap: butt; stroke-linejoin: miter; stroke: rgb(0%,0%,0%); stroke-opacity: 1;stroke-miterlimit: 10; " d="M 20.3 8.725 C 21.678906 8.725 21.678906 10.675 20.3 10.675 C 18.921094 10.675 18.921094 8.725 20.3 8.725 " transform="matrix(20,0,0,20,-212.5,-20)"/>
<path style="fill-rule: nonzero; fill: rgb(100%,100%,100%); fill-opacity: 1;stroke-width: 0.1; stroke-linecap: butt; stroke-linejoin: miter; stroke: rgb(0%,0%,0%); stroke-opacity: 1;stroke-miterlimit: 10; " d="M 17.659961 1.05 C 19.038867 1.05 19.038867 3 17.659961 3 C 16.281055 3 16.281055 1.05 17.659961 1.05 " transform="matrix(20,0,0,20,-212.5,-20)"/>
<path style="fill: none; stroke-width: 0.1; stroke-linecap: butt; stroke-linejoin: miter; stroke: rgb(0%,0%,0%); stroke-opacity: 1;stroke-miterlimit: 10; " d="M 17.780664 3.041211 L 18.174414 6.358789 " transform="matrix(20,0,0,20,-212.5,-20)"/>
<path style="fill: none; stroke-width: 0.1; stroke-linecap: butt; stroke-linejoin: miter; stroke: rgb(0%,0%,0%); stroke-opacity: 1;stroke-miterlimit: 10; " d="M 12.602734 12.42793 L 16.432227 13.94707 " transform="matrix(20,0,0,20,-212.5,-20)"/>
<path style="fill: none; stroke-width: 0.1; stroke-linecap: butt; stroke-linejoin: miter; stroke: rgb(0%,0%,0%); stroke-opacity: 1;stroke-miterlimit: 10; " d="M 19.311133 9.968555 L 12.638867 11.781445 " transform="matrix(20,0,0,20,-212.5,-20)"/>
<path style="fill: none; stroke-width: 0.1; stroke-linecap: butt; stroke-linejoin: miter; stroke: rgb(0%,0%,0%); stroke-opacity: 1;stroke-miterlimit: 10; " d="M 20.843945 10.568359 L 22.356055 12.981641 " transform="matrix(20,0,0,20,-212.5,-20)"/>
<path style="fill: none; stroke-width: 0.1; stroke-linecap: butt; stroke-linejoin: miter; stroke: rgb(0%,0%,0%); stroke-opacity: 1;stroke-miterlimit: 10; " d="M 19.485156 10.320312 L 12.739844 15.454687 " transform="matrix(20,0,0,20,-212.5,-20)"/>
<path style="fill: none; stroke-width: 0.1; stroke-linecap: butt; stroke-linejoin: miter; stroke: rgb(0%,0%,0%); stroke-opacity: 1;stroke-miterlimit: 10; " d="M 12.177148 11.170703 L 17.132812 2.904297 " transform="matrix(20,0,0,20,-212.5,-20)"/>
<path style="fill: none; stroke-width: 0.1; stroke-linecap: butt; stroke-linejoin: miter; stroke: rgb(0%,0%,0%); stroke-opacity: 1;stroke-miterlimit: 10; " d="M 18.40625 14.237109 L 21.878711 13.937891 " transform="matrix(20,0,0,20,-212.5,-20)"/>
</g>
</svg>
